# ProBuilder 6.0.9
# https://unity3d.com/unity/features/worldbuilding/probuilder
# 17/3/2569 22:37:51

mtllib ./Map2.mtl
o Map2

g Cube
v -50.29385 0 35.80383
v -107.3777 0 35.80383
v -50.29385 1.422038 35.80383
v -107.3777 1.422038 35.80383
v -107.3777 0 35.11131
v -107.3777 1.422038 35.11131
v -50.29385 0 35.11131
v -50.29385 1.422038 35.11131

vt 57.08389 -0.4220383
vt 0 -0.4220383
vt 57.08389 1
vt 0 1
vt 0.692524 -0.4220383
vt 0.692522 1
vt 0 0.3074799
vt 57.08389 0.3074799

vn 0 1.341278E-06 1
vn -1 0 0
vn 0 1.341278E-06 -1
vn 1 0 0
vn 0 1 0
vn 0 -1 0

usemtl ProBuilderDefault
f 3/3/1 4/4/1 2/2/1 1/1/1
f 4/6/2 6/4/2 5/2/2 2/5/2
f 6/3/3 8/4/3 7/2/3 5/1/3
f 8/6/4 3/4/4 1/2/4 7/5/4
f 8/7/5 6/8/5 4/3/5 3/4/5
f 1/3/6 2/4/6 5/7/6 7/8/6

g Cube (24)
v -50.29385 0 72.78626
v -107.3777 0 77.59359
v -50.29385 19.51789 72.78626
v -107.3777 19.51789 77.59359
v -107.3777 0 76.90107
v -107.3777 19.51789 76.90107
v -50.29385 0 72.09374
v -50.29385 19.51789 72.09374

vt 57.28596 -18.51789
vt 0 -18.51789
vt 57.28596 1
vt 0 1
vt 0.6925201 -18.51789
vt 0.6925201 1
vt 0 -3.807327
vt 57.08389 1
vt 0 -4.499847
vt 57.08389 0.3074799
vt 57.08389 -4.499849
vt 0 0.3074799
vt 57.08389 -3.807325

vn 0.08391804 9.737839E-08 0.9964727
vn -1 0 0
vn -0.0839181 0 -0.9964727
vn 1 0 0
vn 0 1 0
vn 0 -1 0

usemtl ProBuilderDefault
f 11/11/7 12/12/7 10/10/7 9/9/7
f 12/14/8 14/12/8 13/10/8 10/13/8
f 14/11/9 16/12/9 15/10/9 13/9/9
f 16/14/10 11/12/10 9/10/10 15/13/10
f 16/17/11 14/18/11 12/16/11 11/15/11
f 9/21/12 10/12/12 13/20/12 15/19/12

g Cube (18)
v -51.13626 0 56.90061
v -51.13626 0 34.7782
v -51.13629 1.416941 56.90065
v -51.13626 1.416941 34.77821
v -50.44374 0 34.7782
v -50.44374 1.416941 34.77821
v -50.44374 0 56.90061
v -50.44374 1.416941 56.90065

vt 22.12241 -0.4169409
vt 0 -0.4169409
vt 22.12245 0.9999999
vt 1.525879E-05 0.9999999
vt 0.692524 -0.4169409
vt 0.6925202 0.9999999
vt 22.12244 1
vt 0 1
vt 0 0.3074531
vt 22.12244 0.3074519

vn -1 -1.884545E-05 -6.596111E-10
vn -5.292814E-08 1.076883E-05 -1
vn 1 1.291148E-12 -6.875496E-10
vn -1.192093E-07 -2.961427E-05 1
vn 0 1 0
vn 0 -1 0

usemtl ProBuilderDefault
f 19/24/13 20/25/13 18/23/13 17/22/13
f 20/27/14 22/25/14 21/23/14 18/26/14
f 22/28/15 24/29/15 23/23/15 21/22/15
f 24/27/16 19/25/16 17/23/16 23/26/16
f 24/30/17 22/31/17 20/24/17 19/29/17
f 17/24/18 18/29/18 21/30/18 23/31/18

g Cube (23)
v -51.13626 0 72.61604
v -51.13626 0 55.5282
v -51.13626 18.81975 72.61604
v -51.13626 18.81975 55.52818
v -50.44374 0 55.5282
v -50.44374 18.81975 55.52818
v -50.44374 0 72.61604
v -50.44374 18.81975 72.61604

vt 17.08785 -17.81975
vt 1.2815E-05 -17.81975
vt 17.08785 1
vt 0 1
vt 0.6925265 -17.81975
vt 0.6925202 1
vt 17.08785 0.9999944
vt 0 0.307476
vt 17.08785 0.3074742

vn -1 0 -7.909576E-08
vn -5.292814E-08 -6.809335E-07 -1
vn 1 -1.314362E-07 -1.458888E-07
vn -1.192093E-07 0 1
vn 0 1 0
vn 0 -1 0

usemtl ProBuilderDefault
f 27/34/19 28/35/19 26/33/19 25/32/19
f 28/37/20 30/35/20 29/33/20 26/36/20
f 30/34/21 32/35/21 31/33/21 29/32/21
f 32/37/22 27/35/22 25/33/22 31/36/22
f 32/39/23 30/40/23 28/38/23 27/35/23
f 25/38/24 26/35/24 29/39/24 31/40/24

g Cube (22)
v -107.1863 0 76.70044
v -107.1863 0 34.7782
v -107.1863 18.90908 76.70047
v -107.1863 18.90908 34.77821
v -106.4937 0 34.7782
v -106.4937 18.90908 34.7782
v -106.4937 0 76.70044
v -106.4937 18.90908 76.70047

vt 41.92223 -17.90908
vt 0 -17.90908
vt 41.92226 1
vt 1.049042E-05 1
vt 0.692524 -17.90908
vt 0.6925231 1
vt 0 0.999995
vt 0 0.3074748
vt 41.92226 0.3074798
vt 41.92223 0.9999941

vn -1 -2.28317E-13 2.22589E-08
vn -5.292815E-08 5.547819E-07 -1
vn 1 1.513042E-07 6.802482E-08
vn -1.192093E-07 -1.613911E-06 1
vn 0 1 0
vn 0 -1 0

usemtl ProBuilderDefault
f 35/43/25 36/44/25 34/42/25 33/41/25
f 36/46/26 38/44/26 37/42/26 34/45/26
f 38/43/27 40/44/27 39/42/27 37/41/27
f 40/46/28 35/44/28 33/42/28 39/45/28
f 40/48/29 38/49/29 36/43/29 35/47/29
f 33/50/30 34/44/30 37/48/30 39/49/30

g Cube (20)
v -51.13626 10.71424 56.90061
v -51.13626 10.71424 34.7782
v -51.1363 11.89917 56.90065
v -51.13625 11.89917 34.7782
v -50.44374 10.71424 34.7782
v -50.44373 11.89917 34.7782
v -50.44374 10.71424 56.90061
v -50.44373 11.89917 56.90065

vt 22.12241 -0.1849302
vt 0 -0.1849302
vt 22.12246 1
vt 3.814697E-06 1
vt 0.6925355 -0.1849301
vt 0.6925202 0.9999999
vt 0 0.9999999
vt 0.6925622 1
vt 22.12245 0.9999568
vt 0 0.3074378
vt 22.12245 0.3074367

vn -1 -2.575475E-05 -6.59604E-10
vn -5.292815E-08 3.219346E-06 -1
vn 1 -9.658031E-06 -6.875496E-10
vn -1.192093E-07 -3.863213E-05 1
vn 0 1 0
vn 0 -1 0

usemtl ProBuilderDefault
f 43/53/31 44/54/31 42/52/31 41/51/31
f 44/56/32 46/57/32 45/52/32 42/55/32
f 46/53/33 48/54/33 47/52/33 45/51/33
f 48/58/34 43/54/34 41/52/34 47/55/34
f 48/60/35 46/61/35 44/59/35 43/54/35
f 41/59/36 42/54/36 45/60/36 47/61/36

g Cube (19)
v -51.13626 4.821677 56.90061
v -51.13625 4.821677 35.33788
v -51.13626 9.191256 56.90061
v -51.13625 9.191256 35.33789
v -50.44372 4.821677 35.33788
v -50.44373 9.191256 35.33789
v -50.44373 4.821677 56.90061
v -50.44374 9.191256 56.90061

vt 21.56273 -3.369578
vt 0 -3.369578
vt 21.56273 1
vt 7.629395E-06 1
vt 0.6925241 -3.369578
vt 0.6925279 1
vt 21.56272 0.9999912
vt 0 0.307476
vt 21.56272 0.3074709
vt 8.195639E-08 0.9999874

vn -1 0 -7.079934E-07
vn 8.648159E-10 1.746025E-06 -1
vn 1 1.746025E-06 1.772584E-07
vn -1.192093E-07 0 1
vn 0 1 0
vn 0 -1 0

usemtl ProBuilderDefault
f 51/64/37 52/65/37 50/63/37 49/62/37
f 52/67/38 54/65/38 53/63/38 50/66/38
f 54/64/39 56/65/39 55/63/39 53/62/39
f 56/67/40 51/65/40 49/63/40 55/66/40
f 56/69/41 54/70/41 52/68/41 51/65/41
f 49/64/42 50/71/42 53/69/42 55/70/42

g Cube (21)
v -51.13626 14.83691 56.90061
v -51.13625 14.83691 35.33789
v -51.13626 18.15714 56.90061
v -51.13625 18.15714 35.33789
v -50.44373 14.83691 35.33789
v -50.44373 18.15714 35.33789
v -50.44373 14.83691 56.90061
v -50.44374 18.15714 56.90061

vt 21.56272 -2.320228
vt 0 -2.320228
vt 21.56272 1
vt 0 1
vt 0.6925241 -2.320228
vt 0.6925203 1
vt 21.56272 0.9999912
vt 0 0.307476
vt 21.56272 0.3074709
vt 8.195639E-08 0.999995

vn -1 0 -3.541701E-07
vn 8.648088E-10 1.359691E-13 -1
vn 1 0 1.772584E-07
vn -1.192093E-07 0 1
vn 0 1 0
vn 0 -1 0

usemtl ProBuilderDefault
f 59/74/43 60/75/43 58/73/43 57/72/43
f 60/77/44 62/75/44 61/73/44 58/76/44
f 62/74/45 64/75/45 63/73/45 61/72/45
f 64/77/46 59/75/46 57/73/46 63/76/46
f 64/79/47 62/80/47 60/78/47 59/75/47
f 57/74/48 58/81/48 61/79/48 63/80/48

g Cube (16)
v -50.29385 10.71424 35.80383
v -107.3777 10.71424 35.80383
v -50.29385 11.92231 35.80383
v -107.3777 11.92231 35.80383
v -107.3777 10.71424 35.11131
v -107.3777 11.92231 35.11131
v -50.29385 10.71424 35.11131
v -50.29385 11.92231 35.11131

vt 57.08389 -0.2080719
vt 0 -0.2080719
vt 57.08389 0.9999999
vt 0 0.9999999
vt 0.692524 -0.2080719
vt 0.692522 1
vt 1.907349E-06 1
vt 57.08389 1
vt 0 0.3074799
vt 57.08389 0.3074799

vn 0 1.578837E-06 1
vn -1 0 0
vn 0 1.578837E-06 -1
vn 1 0 0
vn 0 1 0
vn 0 -1 0

usemtl ProBuilderDefault
f 67/84/49 68/85/49 66/83/49 65/82/49
f 68/87/50 70/88/50 69/83/50 66/86/50
f 70/84/51 72/85/51 71/83/51 69/82/51
f 72/87/52 67/88/52 65/83/52 71/86/52
f 72/90/53 70/91/53 68/89/53 67/88/53
f 65/89/54 66/88/54 69/90/54 71/91/54

g Cube (11)
v -50.29385 4.075707 35.80383
v -107.3777 4.075707 35.80383
v -50.29385 8.620638 35.80383
v -107.3777 8.620638 35.80383
v -107.3777 4.075707 35.11131
v -107.3777 8.620638 35.11131
v -50.29385 4.075707 35.11131
v -50.29385 8.620638 35.11131

vt 57.08389 -3.544931
vt 0 -3.544931
vt 57.08389 1
vt 0 1
vt 0.692522 -3.544931
vt 0.692524 1
vt 0 0.307476
vt 57.08389 0.307476

vn 0 -4.19665E-07 1
vn -1 0 0
vn 0 -4.19665E-07 -1
vn 1 0 0
vn 0 1 0
vn 0 -1 0

usemtl ProBuilderDefault
f 75/94/55 76/95/55 74/93/55 73/92/55
f 76/97/56 78/95/56 77/93/56 74/96/56
f 78/94/57 80/95/57 79/93/57 77/92/57
f 80/97/58 75/95/58 73/93/58 79/96/58
f 80/98/59 78/99/59 76/94/59 75/95/59
f 73/94/60 74/95/60 77/98/60 79/99/60

g Cube (17)
v -50.29385 14.79932 35.80383
v -107.3777 14.79932 35.80383
v -50.29385 18.6164 35.80383
v -107.3777 18.6164 35.80383
v -107.3777 14.79932 35.11131
v -107.3777 18.6164 35.11131
v -50.29385 14.79932 35.11131
v -50.29385 18.6164 35.11131

vt 57.08389 -2.817083
vt 0 -2.817083
vt 57.08389 0.9999999
vt 0 0.9999999
vt 0.692522 -2.817083
vt 0.692524 1
vt 0 1
vt 57.08389 1
vt 0 0.307476
vt 57.08389 0.307476

vn 0 -4.996875E-07 1
vn -1 0 0
vn 0 -4.996875E-07 -1
vn 1 0 0
vn 0 1 0
vn 0 -1 0

usemtl ProBuilderDefault
f 83/102/61 84/103/61 82/101/61 81/100/61
f 84/105/62 86/106/62 85/101/62 82/104/62
f 86/102/63 88/103/63 87/101/63 85/100/63
f 88/105/64 83/106/64 81/101/64 87/104/64
f 88/108/65 86/109/65 84/107/65 83/106/65
f 81/107/66 82/106/66 85/108/66 87/109/66

g Cube (1)
v -59.87301 0 64.02281
v -96.98532 0 66.4849
v -59.87301 18.53266 64.02281
v -96.98532 18.53266 66.4849
v -96.98532 0 56.46701
v -96.98532 18.53266 56.46701
v -59.87301 0 56.46701
v -59.87301 18.53266 56.46701

vt 37.19389 -17.53266
vt 0 -17.53266
vt 37.19389 1
vt 0 1
vt 10.01789 -17.53266
vt 10.01789 1
vt 37.11231 -17.53266
vt 37.11231 1
vt 7.555799 -17.53266
vt 7.555801 1
vt 0 -1.46209
vt 0 -9.017891
vt 37.11231 -9.017891
vt 37.11231 -1.462091

vn 0.06619613 -1.026925E-07 0.9978066
vn -1 0 3.807885E-07
vn 0 -1.029182E-07 -1
vn 1 0 0
vn 0 1 0
vn 0 -1 0

usemtl ProBuilderDefault
f 91/112/67 92/113/67 90/111/67 89/110/67
f 92/115/68 94/113/68 93/111/68 90/114/68
f 94/117/69 96/113/69 95/111/69 93/116/69
f 96/119/70 91/113/70 89/111/70 95/118/70
f 96/121/71 94/122/71 92/117/71 91/120/71
f 89/123/72 90/113/72 93/121/72 95/122/72

g Cube (2)
v -92.54408 0 36.25795
v -93.7083 0 36.25795
v -92.54408 18.9704 36.25795
v -93.7083 18.9704 36.25795
v -93.7083 0 35.20205
v -93.7083 18.9704 35.20205
v -92.54408 0 35.20205
v -92.54408 18.9704 35.20205

vt 1.164207 -17.9704
vt 0 -17.9704
vt 1.164207 1
vt 0 1
vt 1.055908 -17.9704
vt 1.055908 1
vt 0 -0.0559082
vt 1.164207 -0.0559082

vn 0 0 1
vn -1 0 0
vn 0 0 -1
vn 1 0 0
vn 0 1 0
vn 0 -1 0

usemtl ProBuilderDefault
f 99/126/73 100/127/73 98/125/73 97/124/73
f 100/129/74 102/127/74 101/125/74 98/128/74
f 102/126/75 104/127/75 103/125/75 101/124/75
f 104/129/76 99/127/76 97/125/76 103/128/76
f 104/130/77 102/131/77 100/126/77 99/127/77
f 97/126/78 98/127/78 101/130/78 103/131/78

g Cube (12)
v -92.22619 0 44.65
v -94.02619 0 44.65
v -92.22619 18.9704 44.65
v -94.02619 18.9704 44.65
v -94.02619 0 42.84999
v -94.02619 18.9704 42.84999
v -92.22619 0 42.84999
v -92.22619 18.9704 42.84999

vt 1.8 -17.9704
vt 0 -17.9704
vt 1.8 1
vt 0 1
vt 0 -0.8
vt 1.8 -0.8

vn 0 0 1
vn -1 0 0
vn 0 0 -1
vn 1 0 0
vn 0 1 0
vn 0 -1 0

usemtl ProBuilderDefault
f 107/134/79 108/135/79 106/133/79 105/132/79
f 108/134/80 110/135/80 109/133/80 106/132/80
f 110/134/81 112/135/81 111/133/81 109/132/81
f 112/134/82 107/135/82 105/133/82 111/132/82
f 112/136/83 110/137/83 108/134/83 107/135/83
f 105/134/84 106/135/84 109/136/84 111/137/84

g Cube (5)
v -77.8279 0 36.25795
v -78.99211 0 36.25795
v -77.8279 18.9704 36.25795
v -78.99211 18.9704 36.25795
v -78.99211 0 35.20205
v -78.99211 18.9704 35.20205
v -77.8279 0 35.20205
v -77.8279 18.9704 35.20205

vt 1.164207 -17.9704
vt 0 -17.9704
vt 1.164207 1
vt 0 1
vt 1.055908 -17.9704
vt 1.055908 1
vt 0 -0.0559082
vt 1.164207 -0.0559082

vn 0 0 1
vn -1 0 0
vn 0 0 -1
vn 1 0 0
vn 0 1 0
vn 0 -1 0

usemtl ProBuilderDefault
f 115/140/85 116/141/85 114/139/85 113/138/85
f 116/143/86 118/141/86 117/139/86 114/142/86
f 118/140/87 120/141/87 119/139/87 117/138/87
f 120/143/88 115/141/88 113/139/88 119/142/88
f 120/144/89 118/145/89 116/140/89 115/141/89
f 113/140/90 114/141/90 117/144/90 119/145/90

g Cube (13)
v -77.51 0 44.65
v -79.31001 0 44.65
v -77.51 18.9704 44.65
v -79.31001 18.9704 44.65
v -79.31001 0 42.84999
v -79.31001 18.9704 42.84999
v -77.51 0 42.84999
v -77.51 18.9704 42.84999

vt 1.8 -17.9704
vt 0 -17.9704
vt 1.8 1
vt 0 1
vt 0 -0.8
vt 1.8 -0.8

vn 0 0 1
vn -1 0 0
vn 0 0 -1
vn 1 0 0
vn 0 1 0
vn 0 -1 0

usemtl ProBuilderDefault
f 123/148/91 124/149/91 122/147/91 121/146/91
f 124/148/92 126/149/92 125/147/92 122/146/92
f 126/148/93 128/149/93 127/147/93 125/146/93
f 128/148/94 123/149/94 121/147/94 127/146/94
f 128/150/95 126/151/95 124/148/95 123/149/95
f 121/148/96 122/149/96 125/150/96 127/151/96

g Cube (6)
v -63.4679 0 36.25795
v -64.63211 0 36.25795
v -63.4679 18.9704 36.25795
v -64.63211 18.9704 36.25795
v -64.63211 0 35.20205
v -64.63211 18.9704 35.20205
v -63.4679 0 35.20205
v -63.4679 18.9704 35.20205

vt 1.164207 -17.9704
vt 0 -17.9704
vt 1.164207 1
vt 0 1
vt 1.055908 -17.9704
vt 1.055908 1
vt 0 -0.0559082
vt 1.164207 -0.0559082

vn 0 0 1
vn -1 0 0
vn 0 0 -1
vn 1 0 0
vn 0 1 0
vn 0 -1 0

usemtl ProBuilderDefault
f 131/154/97 132/155/97 130/153/97 129/152/97
f 132/157/98 134/155/98 133/153/98 130/156/98
f 134/154/99 136/155/99 135/153/99 133/152/99
f 136/157/100 131/155/100 129/153/100 135/156/100
f 136/158/101 134/159/101 132/154/101 131/155/101
f 129/154/102 130/155/102 133/158/102 135/159/102

g Cube (14)
v -63.15 0 44.65
v -64.95 0 44.65
v -63.15 18.9704 44.65
v -64.95 18.9704 44.65
v -64.95 0 42.84999
v -64.95 18.9704 42.84999
v -63.15 0 42.84999
v -63.15 18.9704 42.84999

vt 1.8 -17.9704
vt 0 -17.9704
vt 1.8 1
vt 0 1
vt 0 -0.8
vt 1.8 -0.8

vn 0 0 1
vn -1 0 0
vn 0 0 -1
vn 1 0 0
vn 0 1 0
vn 0 -1 0

usemtl ProBuilderDefault
f 139/162/103 140/163/103 138/161/103 137/160/103
f 140/162/104 142/163/104 141/161/104 138/160/104
f 142/162/105 144/163/105 143/161/105 141/160/105
f 144/162/106 139/163/106 137/161/106 143/160/106
f 144/164/107 142/165/107 140/162/107 139/163/107
f 137/162/108 138/163/108 141/164/108 143/165/108

g Cube (7)
v -50.2079 0 36.25795
v -51.3721 0 36.25795
v -50.2079 18.9704 36.25795
v -51.3721 18.9704 36.25795
v -51.3721 0 35.20205
v -51.3721 18.9704 35.20205
v -50.2079 0 35.20205
v -50.2079 18.9704 35.20205

vt 1.164207 -17.9704
vt 0 -17.9704
vt 1.164207 1
vt 0 1
vt 1.055908 -17.9704
vt 1.055908 1
vt 0 -0.0559082
vt 1.164207 -0.0559082

vn 0 0 1
vn -1 0 0
vn 0 0 -1
vn 1 0 0
vn 0 1 0
vn 0 -1 0

usemtl ProBuilderDefault
f 147/168/109 148/169/109 146/167/109 145/166/109
f 148/171/110 150/169/110 149/167/110 146/170/110
f 150/168/111 152/169/111 151/167/111 149/166/111
f 152/171/112 147/169/112 145/167/112 151/170/112
f 152/172/113 150/173/113 148/168/113 147/169/113
f 145/168/114 146/169/114 149/172/114 151/173/114

g Cube (8)
v -50.2079 0 56.38795
v -51.3721 0 56.38795
v -50.2079 18.9704 56.38795
v -51.3721 18.9704 56.38795
v -51.3721 0 55.33205
v -51.3721 18.9704 55.33205
v -50.2079 0 55.33205
v -50.2079 18.9704 55.33205

vt 1.164207 -17.9704
vt 0 -17.9704
vt 1.164207 1
vt 0 1
vt 1.055908 -17.9704
vt 1.055908 1
vt 0 -0.0559082
vt 1.164207 -0.0559082

vn 0 0 1
vn -1 0 0
vn 0 0 -1
vn 1 0 0
vn 0 1 0
vn 0 -1 0

usemtl ProBuilderDefault
f 155/176/115 156/177/115 154/175/115 153/174/115
f 156/179/116 158/177/116 157/175/116 154/178/116
f 158/176/117 160/177/117 159/175/117 157/174/117
f 160/179/118 155/177/118 153/175/118 159/178/118
f 160/180/119 158/181/119 156/176/119 155/177/119
f 153/176/120 154/177/120 157/180/120 159/181/120

g Cube (9)
v -50.2079 0 46.74796
v -51.3721 0 46.74796
v -50.2079 18.9704 46.74796
v -51.3721 18.9704 46.74796
v -51.3721 0 45.69205
v -51.3721 18.9704 45.69205
v -50.2079 0 45.69205
v -50.2079 18.9704 45.69205

vt 1.164207 -17.9704
vt 0 -17.9704
vt 1.164207 1
vt 0 1
vt 1.055908 -17.9704
vt 1.055908 1
vt 0 -0.0559082
vt 1.164207 -0.0559082

vn 0 0 1
vn -1 0 0
vn 0 0 -1
vn 1 0 0
vn 0 1 0
vn 0 -1 0

usemtl ProBuilderDefault
f 163/184/121 164/185/121 162/183/121 161/182/121
f 164/187/122 166/185/122 165/183/122 162/186/122
f 166/184/123 168/185/123 167/183/123 165/182/123
f 168/187/124 163/185/124 161/183/124 167/186/124
f 168/188/125 166/189/125 164/184/125 163/185/125
f 161/184/126 162/185/126 165/188/126 167/189/126

g Cube (4)
v -106.2479 0 36.25795
v -107.4121 0 36.25795
v -106.2479 18.9704 36.25795
v -107.4121 18.9704 36.25795
v -107.4121 0 35.20205
v -107.4121 18.9704 35.20205
v -106.2479 0 35.20205
v -106.2479 18.9704 35.20205

vt 1.164207 -17.9704
vt 0 -17.9704
vt 1.164207 1
vt 0 1
vt 1.055908 -17.9704
vt 1.055908 1
vt 0 -0.0559082
vt 1.164207 -0.0559082

vn 0 0 1
vn -1 0 0
vn 0 0 -1
vn 1 0 0
vn 0 1 0
vn 0 -1 0

usemtl ProBuilderDefault
f 171/192/127 172/193/127 170/191/127 169/190/127
f 172/195/128 174/193/128 173/191/128 170/194/128
f 174/192/129 176/193/129 175/191/129 173/190/129
f 176/195/130 171/193/130 169/191/130 175/194/130
f 176/196/131 174/197/131 172/192/131 171/193/131
f 169/192/132 170/193/132 173/196/132 175/197/132

g Cube (3)
v -50.76109 3.72529E-09 72.10315
v -106.9481 3.72529E-09 76.69086
v -50.76109 0.09877777 72.10315
v -106.9481 0.09877777 76.69086
v -106.9481 3.72529E-09 35.24933
v -106.9481 0.09877777 35.24933
v -50.76109 3.72529E-09 35.24933
v -50.76109 0.09877777 35.24933

vt 56.37397 0.9012222
vt 0 0.9012222
vt 56.37397 1
vt 0 1
vt 41.44153 0.9012222
vt 41.44153 1
vt 56.18699 0.9012222
vt 56.18699 1
vt 36.85382 0.9012222
vt 36.85382 1
vt 0 -3.587708
vt 0 -40.44153
vt 56.18699 -40.44153
vt 56.18699 -3.587708

vn 0.08137989 0 0.9966832
vn -1 0 9.205011E-08
vn 0 0 -1
vn 1 0 0
vn 0 1 0
vn 0 -1 0

usemtl ProBuilderDefault
f 179/200/133 180/201/133 178/199/133 177/198/133
f 180/203/134 182/201/134 181/199/134 178/202/134
f 182/205/135 184/201/135 183/199/135 181/204/135
f 184/207/136 179/201/136 177/199/136 183/206/136
f 184/209/137 182/210/137 180/205/137 179/208/137
f 177/211/138 178/201/138 181/209/138 183/210/138

g Cube (15)
v -50.76109 16.22929 72.10315
v -106.9481 16.22929 76.69086
v -50.76109 19.64939 72.10315
v -106.9481 19.64939 76.69086
v -106.9481 16.22929 35.24933
v -106.9481 19.64939 35.24933
v -50.76109 16.22929 35.24933
v -50.76109 19.64939 35.24933

vt 56.37397 -2.420095
vt 0 -2.420095
vt 56.37397 1
vt 0 1
vt 41.44153 -2.420095
vt 41.44153 1
vt 56.18699 -2.420095
vt 56.18699 1
vt 36.85382 -2.420095
vt 36.85382 1
vt 0 -3.587708
vt 0 -40.44153
vt 56.18699 -40.44153
vt 56.18699 -3.587708

vn 0.08137989 0 0.9966832
vn -1 0 0
vn 0 0 -1
vn 1 0 0
vn 0 1 0
vn 0 -1 0

usemtl ProBuilderDefault
f 187/214/139 188/215/139 186/213/139 185/212/139
f 188/217/140 190/215/140 189/213/140 186/216/140
f 190/219/141 192/215/141 191/213/141 189/218/141
f 192/221/142 187/215/142 185/213/142 191/220/142
f 192/223/143 190/224/143 188/219/143 187/222/143
f 185/225/144 186/215/144 189/223/144 191/224/144

g Cube (10)
v -106.9143 5.898147 76.6881
v -106.9481 6.40977 76.69086
v -96.62105 5.898146 66.45515
v -59.78596 10.65143 56.54367
v -59.86245 10.65143 64.10574
v -96.6245 10.65143 66.44085
v -96.62105 10.65143 66.45515
v -106.9481 11.16305 76.69086
v -106.9481 10.65143 35.24933
v -50.76109 10.65143 35.24933
v -50.76109 10.65143 56.71539
v -96.6245 5.898146 66.44085
v -50.83149 3.166532 63.92769
v -51.10543 3.197474 72.5927
v -50.83149 4.239363 63.92769
v -51.10543 4.270303 72.5927
v -106.9481 5.898147 35.24933
v -59.78596 5.898147 56.54367
v -59.86245 5.898146 64.10574
v -50.76109 5.898147 35.24933
v -50.76109 5.898147 56.71539
v -60.04319 3.166532 63.92769
v -58.34843 3.487326 72.5927
v -60.0432 4.239363 63.92769
v -58.34843 4.560155 72.5927
v -60.0432 0.04086113 56.508
v -60.04319 -1.03197 56.508
v -50.83149 0.04086113 56.508
v -50.83149 -1.03197 56.508

vt -36.12342 -2.651654
vt -36.14929 -2.139565
vt -21.60911 -2.651655
vt -19.06403 2.877844
vt -18.98754 10.43981
vt 17.7744 12.77444
vt 17.77096 12.78874
vt 28.09914 23.02686
vt 28.09795 -18.41678
vt -28.08888 -18.41609
vt -28.08888 3.049674
vt -8.242233 -2.801854
vt -8.256941 -2.801854
vt -8.242233 1.951429
vt -8.256941 1.951429
vt -9.360834 -5.533468
vt -18.03018 -5.502526
vt -9.360834 -4.460637
vt -18.03018 -4.429697
vt 23.01462 -2.29023
vt -18.42691 -2.801853
vt 23.01462 2.463053
vt -18.42691 1.951429
vt -2.674426 -2.801853
vt -10.23688 -2.801854
vt -2.674426 1.951429
vt -10.23688 1.951429
vt 18.29279 -2.801854
vt -18.54335 -2.801854
vt 18.29279 1.951429
vt -18.54335 1.951429
vt 28.09349 -2.801853
vt -28.09349 -2.801853
vt 28.09349 1.951429
vt -28.09349 1.951429
vt 18.42691 -2.801853
vt -3.03915 -2.801853
vt 18.42691 1.951429
vt -3.03915 1.951429
vt 28.14623 -2.801853
vt 19.11972 -2.801853
vt 28.14623 1.951429
vt 19.11972 1.951429
vt -28.05523 23.00146
vt -28.08979 23.00605
vt -28.08897 -18.43705
vt 28.09794 -18.43672
vt 28.09794 3.029197
vt 19.07308 2.857424
vt 18.9966 10.41944
vt -17.7654 12.75433
vt -17.76196 12.76863
vt -17.50073 12.88695
vt -27.83668 23.12645
vt 19.17892 10.35856
vt 20.84424 19.00817
vt 18.6051 1.951429
vt 18.6051 -2.801854
vt -18.05997 -4.460637
vt -18.05997 -5.533468
vt -29.92798 -2.29023
vt -29.92798 2.463053
vt 18.84414 -5.212674
vt 18.84414 -4.139844
vt 28.1579 23.05978
vt 17.86328 12.77873
vt -20.88672 18.94347
vt -19.25492 10.36909
vt 18.81139 10.03971
vt 20.50615 18.71066
vt 28.02309 10.03971
vt 27.74915 18.69994
vt -18.81139 -8.659139
vt -18.81139 -9.73197
vt -28.02309 -8.659139
vt -28.02309 -9.73197
vt 20.50615 -5.212674
vt 20.50615 -4.139844
vt 27.74915 -5.502526
vt 27.74915 -4.429697
vt -20.65529 18.74903
vt -18.97471 10.07531
vt -27.90409 18.74903
vt -28.17904 10.0918
vt 10.25149 -4.460703
vt 10.25149 -5.533535
vt 2.831798 -8.659205
vt 2.831798 -9.732037
vt -28.02309 6.725298
vt -18.81139 6.725298
vt -28.02309 -1.799912
vt -18.81139 -1.799912
vt 18.81139 6.196949
vt 28.02309 6.196949
vt 18.81139 -2.328261
vt 28.02309 -2.328261
vt -10.25145 -5.533468
vt -10.25145 -4.460637
vt -2.83176 -9.73197
vt -2.83176 -8.659139

vn 0.7043843 0.04263386 0.7085373
vn 0 1 0
vn 0.01930553 0.9995961 -0.005492965
vn 0.03994982 0.9991553 -0.009635709
vn 0.03861105 0.9991921 -0.01098593
vn 0.01242409 0.999743 -0.00411205
vn 0.972123 0 -0.2344715
vn 0.9995006 0 0.03159881
vn -1 0 0
vn 0.9999489 0 0.01011374
vn 0.06339192 0 0.9979888
vn 0 0 -1
vn 1 0 0
vn -0.01902423 0 0.999819
vn -0.3524981 -0.5213388 -0.353963
vn -0.3711342 -0.5209532 -0.3477949
vn -0.01242412 -0.999743 0.004112038
vn 0 -1 0
vn -0.1484537 -0.8083813 -0.139118
vn -0.07631158 -0.9967138 -0.02717239
vn -0.06612279 -0.9970002 0.01034442
vn -0.05593399 -0.9972867 0.04786123
vn -0.06893368 0 -0.9976212
vn 0.08402653 0 0.9964635
vn 0.1417951 0.9854416 0.09380364
vn 0.1547036 0.9844318 0.01230656
vn 0.1676121 0.983422 -0.06919052
vn 0 -0.9993154 0.03699641
vn -0.01999307 -0.9992565 0.01965015
vn -0.03998613 -0.9991976 0.002303896
vn 0 0 1
vn 0.03994615 0.9981984 -0.04476778
vn 0.01997308 0.999096 -0.02416922
vn 0 0.9999936 -0.003570664
vn 0 0.8703234 -0.4924808
vn 0 -0.8703234 0.4924808

usemtl ProBuilderDefault
f 195/228/145 194/227/145 193/226/145
f 199/232/148 198/231/147 200/233/149
f 200/233/149 198/231/147 201/234/150
f 198/231/147 197/230/146 196/229/146
f 201/234/150 198/231/147 196/229/146
f 196/229/146 202/235/146 201/234/150
f 203/236/146 202/235/146 196/229/146
f 210/274/162 212/272/162 213/273/162
f 209/271/161 212/272/162 210/274/162
f 210/274/162 204/276/163 209/271/161
f 210/274/162 211/275/162 204/276/163
f 204/276/163 194/270/160 209/271/161
f 204/276/163 193/269/159 194/270/160
f 193/269/159 204/276/163 195/277/162
f 199/240/151 195/238/151 204/237/151
f 204/237/151 198/239/151 199/240/151
f 208/244/152 206/242/152 205/241/152
f 205/241/152 207/243/152 208/244/152
f 201/248/153 209/246/153 194/245/153
f 194/245/153 200/247/153 201/248/153
f 197/252/154 211/250/154 210/249/154
f 210/249/154 196/251/154 197/252/154
f 198/256/155 204/254/155 211/253/155
f 211/253/155 197/255/155 198/256/155
f 202/260/156 212/258/156 209/257/156
f 209/257/156 201/259/156 202/260/156
f 203/264/157 213/262/157 212/261/157
f 212/261/157 202/263/157 203/264/157
f 196/268/158 210/266/158 213/265/158
f 213/265/158 203/267/158 196/268/158
f 215/281/166 194/279/165 195/278/164
f 195/278/164 214/280/165 215/281/166
f 214/285/167 195/283/167 199/282/167
f 199/282/167 216/284/167 214/285/167
f 217/289/168 200/287/168 194/286/168
f 194/286/168 215/288/168 217/289/168
f 216/293/171 199/291/170 200/290/169
f 200/290/169 217/292/170 216/293/171
f 206/297/174 215/295/173 214/294/172
f 214/294/172 205/296/173 206/297/174
f 221/301/156 219/299/156 218/298/156
f 218/298/156 220/300/156 221/301/156
f 208/305/175 217/303/175 215/302/175
f 215/302/175 206/304/175 208/305/175
f 207/309/178 216/307/177 217/306/176
f 217/306/176 208/308/177 207/309/178
f 219/313/153 214/311/153 216/310/153
f 216/310/153 218/312/153 219/313/153
f 218/317/179 216/315/179 207/314/179
f 207/314/179 220/316/179 218/317/179
f 221/321/180 205/319/180 214/318/180
f 214/318/180 219/320/180 221/321/180
f 220/325/157 207/323/157 205/322/157
f 205/322/157 221/324/157 220/325/157

g Cube (25)
v -50.76109 15.94976 63.7839
v -59.78596 15.94976 63.61217
v -50.76109 19.4331 63.7839
v -59.78596 19.4331 63.61217
v -50.76109 5.947464 56.59962
v -59.78596 5.947464 56.4279
v -50.76109 19.4331 56.59962
v -59.78596 19.4331 56.4279

vt 28.2807 7.249764
vt 19.25419 7.249764
vt 28.2807 10.7331
vt 19.25419 10.7331
vt 28.14403 -0.8425909
vt 19.11752 -0.8425909
vt 28.2807 11.47167
vt 19.25419 11.47167
vt -2.923386 10.7331
vt -2.923386 -2.752536
vt -10.10766 10.7331
vt -10.10766 7.249764
vt 2.751663 -2.752536
vt 2.751663 10.7331
vt 9.935936 7.249764
vt 9.935936 10.7331
vt -19.06862 2.751663
vt -28.09349 2.923386
vt -19.06862 9.935936
vt -28.09349 10.10766
vt -28.14403 -2.752536
vt -19.11752 -2.752536
vt -19.11752 10.7331
vt -28.14403 10.7331

vn -0.01902423 0 0.999819
vn -0.01545249 -0.5833051 0.8121062
vn 1 0 0
vn -1 0 0
vn 0 1 0
vn 0.01902423 0 -0.999819

usemtl ProBuilderDefault
f 224/328/181 225/329/181 223/327/181 222/326/181
f 222/332/182 223/333/182 227/331/182 226/330/182
f 224/336/183 222/337/183 226/335/183 228/334/183
f 223/340/184 225/341/184 229/339/184 227/338/184
f 225/344/185 224/345/185 228/343/185 229/342/185
f 227/347/186 229/348/186 228/349/186 226/346/186

