# ProBuilder 6.0.9
# https://unity3d.com/unity/features/worldbuilding/probuilder
# 17/3/2569 22:37:14

mtllib ./Map1.mtl
o Map1

g Cube
v 9.076671 0 -11.58999
v -21.05595 0 -11.58999
v 9.076671 9.67358 -11.58999
v -21.05595 9.67358 -11.58999
v -21.05595 0 -12.71783
v -21.05595 9.67358 -12.71783
v 9.076671 0 -12.71783
v 9.076671 9.67358 -12.71783

vt 30.13263 -8.67358
vt 0 -8.67358
vt 30.13263 1
vt 0 1
vt 1.127836 -8.67358
vt 1.127836 1
vt 0 -0.1278362
vt 30.13263 -0.1278362

vn 0 0 1
vn -1 0 8.455787E-07
vn 0 0 -1
vn 1 0 0
vn 0 1 0
vn 0 -1 0

usemtl ProBuilderDefault
f 3/3/1 4/4/1 2/2/1 1/1/1
f 4/6/2 6/4/2 5/2/2 2/5/2
f 6/3/3 8/4/3 7/2/3 5/1/3
f 8/6/4 3/4/4 1/2/4 7/5/4
f 8/7/5 6/8/5 4/3/5 3/4/5
f 1/3/6 2/4/6 5/7/6 7/8/6

g Cube (1)
v 9.076671 0 5.546676
v -21.05595 0 5.546676
v 9.076671 9.67358 5.546676
v -21.05595 9.67358 5.546676
v -21.05595 0 4.635891
v -21.05595 9.67358 4.635891
v 9.076671 0 4.635891
v 9.076671 9.67358 4.635891

vt 30.13263 -8.67358
vt 0 -8.67358
vt 30.13263 1
vt 0 1
vt 0.9107842 -8.67358
vt 0.9107842 1
vt 0 0.08921576
vt 30.13263 0.08921576

vn 0 0 1
vn -1 0 1.047091E-06
vn 0 0 -1
vn 1 0 0
vn 0 1 0
vn 0 -1 0

usemtl ProBuilderDefault
f 11/11/7 12/12/7 10/10/7 9/9/7
f 12/14/8 14/12/8 13/10/8 10/13/8
f 14/11/9 16/12/9 15/10/9 13/9/9
f 16/14/10 11/12/10 9/10/10 15/13/10
f 16/15/11 14/16/11 12/11/11 11/12/11
f 9/11/12 10/12/12 13/15/12 15/16/12

g Cube
v 8.016201 -3.576279E-07 2.811888
v 0.4856775 -3.576279E-07 2.811888
v 8.016201 4 2.811888
v 0.4856775 4 2.811888
v 0.4856775 -3.576279E-07 2.465402
v 0.4856775 4 2.465402
v 8.016201 -3.576279E-07 2.465402
v 8.016201 4 2.465402

vt 7.530524 -3
vt 0 -3
vt 7.530523 1
vt 0 1
vt 0.3464856 -3
vt 0.3464856 1
vt 0 0.6535144
vt 7.530523 0.6535144

vn 0 0 1
vn -1 0 0
vn 0 0 -1
vn 1 0 -6.881053E-07
vn 0 1 0
vn 0 -1 0

usemtl ProBuilderDefault
f 19/19/13 20/20/13 18/18/13 17/17/13
f 20/22/14 22/20/14 21/18/14 18/21/14
f 22/19/15 24/20/15 23/18/15 21/17/15
f 24/22/16 19/20/16 17/18/16 23/21/16
f 24/23/17 22/24/17 20/19/17 19/20/17
f 17/19/18 18/20/18 21/23/18 23/24/18

g Cube (3)
v 8.016201 -3.576279E-07 -8.826757
v 0.4856775 -3.576279E-07 -8.826757
v 8.016201 4 -8.826757
v 0.4856775 4 -8.826757
v 0.4856775 -3.576279E-07 -9.173244
v 0.4856775 4 -9.173244
v 8.016201 -3.576279E-07 -9.173244
v 8.016201 4 -9.173244

vt 7.530524 -3
vt 0 -3
vt 7.530523 1
vt 0 1
vt 0.3464859 -3
vt 0.3464861 1
vt 0 0.6535139
vt 7.530523 0.6535139

vn 0 -5.960464E-08 1
vn -1 0 0
vn 0 -5.960464E-08 -1
vn 1 -4.101427E-14 -6.881053E-07
vn 0 1 0
vn 0 -1 0

usemtl ProBuilderDefault
f 27/27/19 28/28/19 26/26/19 25/25/19
f 28/30/20 30/28/20 29/26/20 26/29/20
f 30/27/21 32/28/21 31/26/21 29/25/21
f 32/30/22 27/28/22 25/26/22 31/29/22
f 32/31/23 30/32/23 28/27/23 27/28/23
f 25/27/24 26/28/24 29/31/24 31/32/24

g Door
v 0.1383325 2.541973 1.636023
v 0.1383325 0 1.636023
v 0.1383327 3.010933 0.8860233
v 0.1383326 0 0.8860231
v 0.1383328 0 -1.002138
v 0.1383329 0 -1.752138
v 0.1383329 3.010933 -1.002138
v 0.1383329 2.541973 -1.752138
v 0.1383326 4.009949 1.636024
v 0.1383327 4.009949 0.8860233
v 0.1383329 4.009949 -1.002138
v 0.138333 4.009949 -1.752138
v 0.4013685 2.541973 1.636023
v 0.4013687 3.010933 0.8860233
v 0.4013685 0 1.636023
v 0.4013686 0 0.8860231
v 0.4013688 0 -1.002138
v 0.4013689 3.010933 -1.002138
v 0.4013689 0 -1.752138
v 0.4013689 2.541973 -1.752138
v 0.4013686 4.009949 1.636024
v 0.4013687 4.009949 0.8860233
v 0.4013689 4.009949 -1.002138
v 0.401369 4.009949 -1.752138

vt 1.69408 1.020987
vt 1.69408 -1.520987
vt 0.9440807 1.489947
vt 0.9440805 -1.520987
vt -0.9440802 -1.520987
vt -1.69408 -1.520987
vt -0.9440804 1.489947
vt -1.69408 1.020987
vt 1.694081 2.488962
vt 0.9440807 2.488962
vt -0.9440804 2.488962
vt -1.694081 2.488962
vt -0.9440804 1.481667
vt 0.9440805 1.481667
vt -0.9440804 1.218631
vt 0.9440805 1.218631
vt -1.218631 -1.520987
vt -1.481667 -1.520987
vt -1.218631 1.489947
vt -1.481667 1.489947
vt 1.481667 -1.520986
vt 1.218631 -1.520986
vt 1.481667 1.489947
vt 1.218631 1.489947

vn -1 0 -2.781551E-07
vn 1 0 2.781551E-07
vn 0 -1 0
vn -1.192093E-07 5.938821E-08 1
vn 1.192093E-07 7.918428E-08 -1

usemtl ProBuilderDefault
f 35/35/25 36/36/25 34/34/25 33/33/25
f 39/39/25 40/40/25 38/38/25 37/37/25
f 41/41/25 42/42/25 35/35/25 33/33/25
f 44/44/25 40/40/25 39/39/25 43/43/25
f 42/42/25 43/43/25 39/39/25 35/35/25
f 47/38/26 48/37/26 46/39/26 45/40/26
f 51/34/26 52/33/26 50/35/26 49/36/26
f 46/39/26 54/43/26 53/44/26 45/40/26
f 50/35/26 52/33/26 56/41/26 55/42/26
f 50/35/26 55/42/26 54/43/26 46/39/26
f 50/47/27 46/48/27 35/46/27 39/45/27
f 50/51/28 39/52/28 37/50/28 49/49/28
f 35/55/29 46/56/29 48/54/29 36/53/29

g Cube (1)
v 0.2824538 4 -6.866471
v 0.2824538 4 -8.847433
v 0.653055 4 -8.847433
v 0.653055 4 -6.866471
v 0.653055 2.384186E-07 -8.847433
v 0.2824538 2.384186E-07 -8.847433
v 0.2824538 2.384186E-07 -6.866471
v 0.653055 2.384186E-07 -6.866471
v 0.653055 4 -4.817304
v 0.2824538 4 -4.817304
v 0.653055 4 -1.556484
v 0.2824538 4 -1.556484
v 0.2824538 2.384186E-07 -4.817304
v 0.653055 2.384186E-07 -4.817304
v 0.2824538 2.384186E-07 -1.556484
v 0.653055 2.384186E-07 -1.556484
v 0.2824538 2.971888 -1.556484
v 0.653055 2.971888 -1.556484
v 0.653055 2.971888 -8.847433
v 0.2824538 2.971888 -8.847433
v 0.2824538 2.971888 -6.866471
v 0.653055 2.539845 -6.635188
v 0.2824538 2.539845 -5.048586
v 0.653055 2.539845 -5.048586
v 0.2824538 1.485944 -1.556484
v 0.653055 1.485944 -1.556484
v 0.653055 1.485944 -8.847433
v 0.2824538 1.485944 -8.847433
v 0.2824538 1.053901 -6.635188
v 0.653055 1.053901 -6.635188
v 0.2824538 1.053901 -5.048586
v 0.653055 1.053901 -5.048586

vt 0.3706012 -4.309987
vt 0.3706012 -6.290949
vt 0 -6.290949
vt 0 -4.309987
vt 0 -2.260819
vt 0.3706012 -2.260819
vt 0 1
vt 0.3706012 1
vt 0 -0.02811193
vt 0.3706012 -0.02811193
vt 1.980962 1
vt 1.980962 -0.02811193
vt 5.078704 -0.460155
vt 5.309987 1
vt 7.290949 1
vt 7.290949 -0.02811193
vt 3.798847 -0.460155
vt 4.030129 1
vt 3.260819 1
vt 3.492102 -0.460155
vt 0.3706012 -3
vt 0 -3
vt 0 -1.514056
vt 0.3706012 -1.514056
vt 1.980962 -3
vt 2.212245 -1.946099
vt 5.309987 -3
vt 5.078704 -1.946099
vt 7.290949 -1.514056
vt 7.290949 -3
vt 4.030129 -3
vt 3.798847 -1.946099
vt 3.492102 -1.946099
vt 3.260819 -3

vn 0 1 0
vn 0 -1 0
vn 0 0 1
vn 0 0 -1
vn -1 0 0
vn 1 0 0

usemtl ProBuilderDefault
f 57/57/30 60/60/30 59/59/30 58/58/30
f 61/58/31 64/57/31 63/60/31 62/59/31
f 66/62/30 65/61/30 60/60/30 57/57/30
f 68/64/30 67/63/30 65/61/30 66/62/30
f 63/60/31 64/57/31 70/62/31 69/61/31
f 69/61/31 70/62/31 72/64/31 71/63/31
f 67/64/32 68/63/32 73/65/32 74/66/32
f 76/66/33 58/64/33 59/63/33 75/65/33
f 57/67/34 58/63/34 76/65/34 77/68/34
f 75/72/35 59/71/35 60/70/35 78/69/35
f 68/71/34 66/74/34 79/73/34 73/72/34
f 66/74/34 57/67/34 77/68/34 79/73/34
f 74/65/35 80/76/35 65/75/35 67/63/35
f 78/69/35 60/70/35 65/75/35 80/76/35
f 82/80/32 81/79/32 71/78/32 72/77/32
f 74/66/32 73/65/32 81/79/32 82/80/32
f 61/78/33 62/77/33 84/80/33 83/79/33
f 83/79/33 84/80/33 76/66/33 75/65/33
f 85/82/34 84/79/34 62/78/34 63/81/34
f 77/68/34 76/65/34 84/79/34 85/82/34
f 61/86/35 83/85/35 86/84/35 64/83/35
f 83/85/35 75/72/35 78/69/35 86/84/35
f 81/85/34 87/88/34 69/87/34 71/86/34
f 73/72/34 79/73/34 87/88/34 81/85/34
f 87/88/34 85/82/34 63/81/34 69/87/34
f 82/79/35 88/89/35 80/76/35 74/65/35
f 72/78/35 70/90/35 88/89/35 82/79/35
f 64/83/35 86/84/35 88/89/35 70/90/35

g Cube (2)
v 0.725721 -2.384186E-07 2.810263
v 0.4955734 -2.384186E-07 2.810263
v 0.725721 4 2.810263
v 0.4955734 4 2.810263
v 0.4955734 -2.384186E-07 1.465881
v 0.4955734 4 1.465881
v 0.725721 -2.384186E-07 1.465881
v 0.725721 4 1.465881

vt 0.2301476 -3
vt 0 -3
vt 0.2301476 1
vt 0 1
vt 1.344382 -3
vt 1.344382 1
vt 0 -0.3443818
vt 0.2301476 -0.3443818

vn 0 0 1
vn -1 0 0
vn 0 0 -1
vn 1 0 0
vn 0 1 0
vn 0 -1 0

usemtl ProBuilderDefault
f 91/93/36 92/94/36 90/92/36 89/91/36
f 92/96/37 94/94/37 93/92/37 90/95/37
f 94/93/38 96/94/38 95/92/38 93/91/38
f 96/96/39 91/94/39 89/92/39 95/95/39
f 96/97/40 94/98/40 92/93/40 91/94/40
f 89/93/41 90/94/41 93/97/41 95/98/41

g Cube (4)
v 8.227618 -4.768372E-07 2.370237
v 7.853848 -4.768372E-07 2.370237
v 8.227618 4 2.370237
v 7.853848 4 2.370237
v 7.853848 -4.768372E-07 -8.824013
v 7.853848 4 -8.824013
v 8.227618 -4.768372E-07 -8.824013
v 8.227618 4 -8.824013

vt 0.3737695 -3
vt 2.384186E-07 -3
vt 0.3737698 1
vt 0 1
vt 11.19425 -3
vt 11.19425 1
vt 0 -10.19425
vt 0.3737698 -10.19425

vn 0 0 1
vn -1 -5.960464E-08 0
vn 0 1.192093E-07 -1
vn 1 -5.960464E-08 0
vn 0 1 0
vn 0 -1 0

usemtl ProBuilderDefault
f 99/101/42 100/102/42 98/100/42 97/99/42
f 100/104/43 102/102/43 101/100/43 98/103/43
f 102/101/44 104/102/44 103/100/44 101/99/44
f 104/104/45 99/102/45 97/100/45 103/103/45
f 104/105/46 102/106/46 100/101/46 99/102/46
f 97/101/47 98/102/47 101/105/47 103/106/47

g Cube (5)
v 7.673618 1.232302 2.117324
v 5.362566 1.232302 2.117324
v 7.673618 1.447777 2.117324
v 5.362566 1.447777 2.117324
v 5.362566 1.232302 -2.195988
v 5.362566 1.447777 -2.195988
v 7.673618 1.232302 -2.195988
v 7.673618 1.447777 -2.195988

vt 2.311052 0.7845247
vt 2.384186E-07 0.7845247
vt 2.311052 1
vt 0 1
vt 4.313312 0.7845247
vt 4.313312 1
vt 0 -3.313312
vt 2.311052 -3.313312

vn 0 0 1
vn -1 -1.106478E-06 5.527507E-08
vn 0 0 -1
vn 1 0 5.527507E-08
vn 0 1 0
vn 0 -1 6.909383E-09

usemtl ProBuilderDefault
f 107/109/48 108/110/48 106/108/48 105/107/48
f 108/112/49 110/110/49 109/108/49 106/111/49
f 110/109/50 112/110/50 111/108/50 109/107/50
f 112/112/51 107/110/51 105/108/51 111/111/51
f 112/113/52 110/114/52 108/109/52 107/110/52
f 105/109/53 106/110/53 109/113/53 111/114/53

g Cube (6)
v 7.505613 -1.192093E-07 -5.985896
v 2.216797 -1.192093E-07 -5.985896
v 7.505613 0.5330635 -5.985896
v 2.216797 0.5330635 -5.985896
v 2.216797 -1.192093E-07 -8.636086
v 2.216797 0.5330635 -8.636086
v 7.505613 -1.192093E-07 -8.636086
v 7.505613 0.5330635 -8.636086

vt 5.288816 0.4669363
vt 0 0.4669363
vt 5.288816 1
vt 0 1
vt 2.65019 0.4669365
vt 2.65019 1
vt 2.65019 0.9999999
vt 0 0.9999999
vt 0 -1.65019
vt 5.288816 -1.65019

vn 0 -4.47261E-07 1
vn -1 0 0
vn 0 -4.47261E-07 -1
vn 1 -4.47261E-07 0
vn 0 1 0
vn 0 -1 0

usemtl ProBuilderDefault
f 115/117/54 116/118/54 114/116/54 113/115/54
f 116/120/55 118/118/55 117/116/55 114/119/55
f 118/117/56 120/118/56 119/116/56 117/115/56
f 120/121/57 115/122/57 113/116/57 119/119/57
f 120/123/58 118/124/58 116/117/58 115/118/58
f 113/117/59 114/118/59 117/123/59 119/124/59

g Cube
v 0.4022832 2.809679 -1.556485
v 0.4022832 4.039949 -1.556485
v 0.4022832 2.809679 1.616625
v 0.4022832 4.039949 1.616625
v 0.7354798 4.039949 -1.556485
v 0.7354798 4.039949 1.616625
v 0.7354798 2.809679 -1.556485
v 0.7354798 2.809679 1.616625

vt 1.23027 -2.173109
vt 0 -2.173109
vt 1.23027 1
vt 0 1
vt 0.3331966 -2.173109
vt 0.3331966 1
vt 0 0.6668034
vt 1.23027 0.6668034

vn -1 0 0
vn 0 1 0
vn 1 0 0
vn 0 -1 0
vn 0 0 1
vn 0 0 -1

usemtl ProBuilderDefault
f 123/127/60 124/128/60 122/126/60 121/125/60
f 124/130/61 126/128/61 125/126/61 122/129/61
f 126/127/62 128/128/62 127/126/62 125/125/62
f 128/130/63 123/128/63 121/126/63 127/129/63
f 128/131/64 126/132/64 124/127/64 123/128/64
f 121/127/65 122/128/65 125/131/65 127/132/65

g Prism
v 0.7647657 4.315088 2.56776
v 7.918727 4.315088 2.56776
v 4.341746 9.306171 2.56776
v 7.918727 4.315088 -9.134603
v 4.341746 9.306171 -9.134603
v 0.7647657 4.315088 -9.134603

vt -3.576981 -2.495542
vt 3.576981 -2.495542
vt 0 2.495542
vt -5.851182 -4.112085
vt 5.851182 -4.112085
vt -5.851182 2.028412
vt 5.851182 2.028412
vt -3.576981 5.851182
vt 3.576981 5.851182
vt -3.576981 -5.851182
vt 3.576981 -5.851182

vn 0 0 1
vn 0.8128142 0.582523 0
vn 0 0 -1
vn -0.8128142 0.582523 0
vn 0 -1 0

usemtl ProBuilderDefault
f 129/133/66 130/134/66 131/135/66
f 132/133/68 134/134/68 133/135/68
f 131/138/67 130/136/67 132/137/67
f 132/137/67 133/139/67 131/138/67
f 133/138/69 134/136/69 129/137/69
f 129/137/69 131/139/69 133/138/69
f 132/143/70 130/141/70 129/140/70
f 129/140/70 134/142/70 132/143/70

g Cube (1)
v -23.58176 1.788139E-07 1.071536
v -26.83249 1.788139E-07 1.071536
v -23.58176 1.594849 1.071536
v -26.83249 1.594849 1.071536
v -26.83249 1.788139E-07 -6.545921
v -26.83249 1.594849 -6.545921
v -23.58176 1.788139E-07 -6.545921
v -23.58176 1.594849 -6.545921

vt 3.250729 -0.5948492
vt 0 -0.5948492
vt 3.250729 1
vt 0 1
vt 7.617458 -0.5948492
vt 7.617458 1
vt 0 -6.617458
vt 3.250729 -6.617458

vn 0 0 1
vn -1 0 0
vn 0 0 -1
vn 1 0 0
vn 0 1 0
vn 0 -1 0

usemtl ProBuilderDefault
f 137/146/71 138/147/71 136/145/71 135/144/71
f 138/149/72 140/147/72 139/145/72 136/148/72
f 140/146/73 142/147/73 141/145/73 139/144/73
f 142/149/74 137/147/74 135/145/74 141/148/74
f 142/150/75 140/151/75 138/146/75 137/147/75
f 135/146/76 136/147/76 139/150/76 141/151/76

g Cube (2)
v 0.3698148 0 1.287128
v -1.738864 0 1.287128
v 0.3698148 2.842358 1.287128
v -1.738864 2.842358 1.287128
v -1.738864 0 1.039322
v -1.738864 2.842358 1.039322
v 0.3698148 0 1.039322
v 0.3698148 2.842358 1.039322

vt 2.108678 -1.842358
vt 0 -1.842358
vt 2.108678 1
vt 0 1
vt 0.2478058 -1.842358
vt 0.2478058 1
vt 0 0.7521942
vt 2.108678 0.7521942

vn -1.413318E-08 0 1
vn -1 0 0
vn -1.413318E-08 0 -1
vn 1 0 0
vn 0 1 0
vn 0 -1 0

usemtl ProBuilderDefault
f 145/154/77 146/155/77 144/153/77 143/152/77
f 146/157/78 148/155/78 147/153/78 144/156/78
f 148/154/79 150/155/79 149/153/79 147/152/79
f 150/157/80 145/155/80 143/153/80 149/156/80
f 150/158/81 148/159/81 146/154/81 145/155/81
f 143/154/82 144/155/82 147/158/82 149/159/82

g floor
v 7.992712 5.215406E-07 2.745883
v 0.4469099 5.215406E-07 2.745883
v 7.992712 0.1731295 2.745883
v 0.4469099 0.1731295 2.745883
v 0.4469099 5.215406E-07 -8.921579
v 0.4469099 0.1731295 -8.921579
v 7.992712 5.215406E-07 -8.921579
v 7.992712 0.1731295 -8.921579

vt 7.545802 0.826871
vt 0 0.826871
vt 7.545802 1
vt 0 1
vt 11.66746 0.826871
vt 11.66746 1
vt 0 -10.66746
vt 7.545802 -10.66746

vn 0 0 1
vn -1 0 0
vn 0 0 -1
vn 1 0 0
vn 0 1 0
vn 0 -1 0

usemtl ProBuilderDefault
f 153/162/83 154/163/83 152/161/83 151/160/83
f 154/165/84 156/163/84 155/161/84 152/164/84
f 156/162/85 158/163/85 157/161/85 155/160/85
f 158/165/86 153/163/86 151/161/86 157/164/86
f 158/166/87 156/167/87 154/162/87 153/163/87
f 151/162/88 152/163/88 155/166/88 157/167/88

g floor (1)
v 7.992712 4.141959 2.745883
v 0.4469099 4.141959 2.745883
v 7.992712 4.315088 2.745883
v 0.4469099 4.315088 2.745883
v 0.4469099 4.141959 -8.921579
v 0.4469099 4.315088 -8.921579
v 7.992712 4.141959 -8.921579
v 7.992712 4.315088 -8.921579

vt 7.545802 0.826871
vt 0 0.826871
vt 7.545802 1
vt 0 1
vt 11.66746 0.826871
vt 11.66746 1
vt 0 -10.66746
vt 7.545802 -10.66746

vn 0 0 1
vn -1 0 0
vn 0 0 -1
vn 1 0 0
vn 0 1 0
vn 0 -1 0

usemtl ProBuilderDefault
f 161/170/89 162/171/89 160/169/89 159/168/89
f 162/173/90 164/171/90 163/169/90 160/172/90
f 164/170/91 166/171/91 165/169/91 163/168/91
f 166/173/92 161/171/92 159/169/92 165/172/92
f 166/174/93 164/175/93 162/170/93 161/171/93
f 159/170/94 160/171/94 163/174/94 165/175/94

